<?xml version="1.0" encoding="UTF-8" standalone="no"?>
<!-- Created with Inkscape (http://www.inkscape.org/) -->

<svg
   xmlns:dc="http://purl.org/dc/elements/1.1/"
   xmlns:cc="http://creativecommons.org/ns#"
   xmlns:rdf="http://www.w3.org/1999/02/22-rdf-syntax-ns#"
   xmlns:svg="http://www.w3.org/2000/svg"
   xmlns="http://www.w3.org/2000/svg"
   xmlns:sodipodi="http://sodipodi.sourceforge.net/DTD/sodipodi-0.dtd"
   xmlns:inkscape="http://www.inkscape.org/namespaces/inkscape"
   width="188.21585mm"
   height="157.02946mm"
   viewBox="0 0 188.21586 157.02946"
   version="1.1"
   id="svg8"
   inkscape:version="0.92.3 (2405546, 2018-03-11)"
   sodipodi:docname="Rocc_fig.svg"
   inkscape:export-filename="/home/sara/Dropbox/liibre/Rocc_logo/figs/Rocc_fig.png.png"
   inkscape:export-xdpi="299.50815"
   inkscape:export-ydpi="299.50815">
  <defs
     id="defs2">
    <style
       id="style1017"
       type="text/css">
   
    .fil0 {fill:black}
   
  </style>
  </defs>
  <sodipodi:namedview
     id="base"
     pagecolor="#ffffff"
     bordercolor="#666666"
     borderopacity="1.0"
     inkscape:pageopacity="0.0"
     inkscape:pageshadow="2"
     inkscape:zoom="0.7"
     inkscape:cx="208.88988"
     inkscape:cy="261.54587"
     inkscape:document-units="mm"
     inkscape:current-layer="layer1"
     showgrid="false"
     inkscape:window-width="1366"
     inkscape:window-height="711"
     inkscape:window-x="0"
     inkscape:window-y="0"
     inkscape:window-maximized="1"
     fit-margin-top="0"
     fit-margin-left="0"
     fit-margin-right="0"
     fit-margin-bottom="0"
     inkscape:pagecheckerboard="true" />
  <metadata
     id="metadata5">
    <rdf:RDF>
      <cc:Work
         rdf:about="">
        <dc:format>image/svg+xml</dc:format>
        <dc:type
           rdf:resource="http://purl.org/dc/dcmitype/StillImage" />
        <dc:title></dc:title>
      </cc:Work>
    </rdf:RDF>
  </metadata>
  <g
     inkscape:label="Camada 1"
     inkscape:groupmode="layer"
     id="layer1"
     transform="translate(-0.74850255,-0.5283713)">
    <g
       id="g932"
       transform="matrix(1.8962054,0,0,1.8962054,-0.1631713,-32.062711)"
       inkscape:export-xdpi="300"
       inkscape:export-ydpi="300">
      <g
         id="g911">
        <path
           id="path903"
           d="m 65.505,66.11 4.719,-13.948 c 0.302,-1.041 1.933,-7.124 1.661,-7.744 C 68.499,32.349 67.505,30.571 65.349,30.616 L 51.955,30.542 c -2.377,-0.01 -4.305,1.902 -4.318,4.274 -0.013,2.373 1.901,4.303 4.276,4.314 l 5.359,-0.011 c -3.923,5.746 -16.901,22.062 -14.448,30.471 1.469,5.041 3.804,7.946 5.548,9.579 l -1.533,1.535 c -1.55,-1.397 -3.401,-3.476 -4.692,-5.965 -3.602,-6.936 -2.471,-14.45 -2.471,-14.45 L 31.63,68.4 7.985,44.73 C 6.273,43.034 3.504,43.046 1.809,44.758 0.108,46.473 0.002,49.233 1.716,50.933 L 34.93,84.022 c 0,0 2.88,2.607 5.675,3.217 2.691,0.591 5.704,-0.289 5.704,-0.289 L 59.453,100 99.74,99.791 Z"
           inkscape:connector-curvature="0" />
        <path
           id="path905"
           d="m 46.777,50.605 c 1.253,-1.95 2.631,-4.102 2.65,-4.131 1.022,-1.48 1.717,-3.942 0.021,-5.652 L 26.992,18.411 c -1.693,-1.713 -4.609,-1.582 -6.32,0.11 -1.715,1.697 -1.73,4.457 -0.028,6.172 z"
           inkscape:connector-curvature="0" />
        <path
           id="path907"
           d="m 34.153,40.638 7.934,7.913 c 1.71,1.703 1.714,4.468 0.01,6.179 -1.701,1.705 -4.473,1.709 -6.177,0.006 l -7.935,-7.911 c -1.709,-1.701 -1.713,-4.471 -0.011,-6.175 1.703,-1.711 4.472,-1.712 6.179,-0.012 z"
           inkscape:connector-curvature="0" />
        <path
           id="path909"
           d="m 26.608,48.206 7.936,7.914 c 1.706,1.701 1.714,4.467 0.007,6.177 -1.701,1.705 -4.466,1.709 -6.175,0.008 l -7.931,-7.911 c -1.712,-1.702 -1.718,-4.471 -0.014,-6.175 1.703,-1.711 4.467,-1.715 6.177,-0.013 z"
           inkscape:connector-curvature="0" />
      </g>
    </g>
    <g
       style="clip-rule:evenodd;fill:#a70000;fill-opacity:1;fill-rule:evenodd;image-rendering:optimizeQuality;shape-rendering:geometricPrecision;text-rendering:geometricPrecision"
       id="g1040"
       transform="matrix(0.63051802,0,0,0.63051802,-180.28566,87.374592)"
       inkscape:export-xdpi="300"
       inkscape:export-ydpi="300">
      <g
         id="g1023"
         transform="matrix(0.24057737,0,0,0.24057737,488.57982,16.028848)"
         style="fill:#a70000;fill-opacity:1">
        <path
           id="path1021"
           d="m 192.13,1.52 44.46,129.6 c 0.62,1.83 2.25,3.01 4.18,3.04 l 137.01,2.23 c 2.14,0.03 3.03,2.77 1.32,4.04 l -109.53,82.33 c -1.54,1.16 -2.17,3.08 -1.6,4.92 l 40.21,130.99 c 0.63,2.04 -1.67,3.74 -3.44,2.5 L 192.58,282.45 c -1.58,-1.11 -3.57,-1.11 -5.15,0 L 75.27,361.17 c -1.77,1.24 -4.07,-0.46 -3.44,-2.5 l 40.21,-130.99 c 0.57,-1.84 -0.06,-3.76 -1.6,-4.92 L 0.91,140.43 c -1.71,-1.27 -0.82,-4.01 1.32,-4.04 l 137.01,-2.23 c 1.93,-0.03 3.56,-1.21 4.18,-3.04 L 187.88,1.52 c 0.69,-2.01 3.56,-2.01 4.25,0 z"
           class="fil0"
           inkscape:connector-curvature="0"
           style="fill:#a70000;fill-opacity:1" />
      </g>
    </g>
  </g>
</svg>
